<svg xmlns="http://www.w3.org/2000/svg" viewBox="0 0 303.36 192.51"><defs><style>.cls-1{fill:#fff;}</style></defs><title>sas</title><g id="Calque_2" data-name="Calque 2"><g id="Calque_2-2" data-name="Calque 2"><path class="cls-1" d="M77.66,135.75H67.08a1.33,1.33,0,0,1-1.3-1.08L64.58,128l-3.77-3.77a1.28,1.28,0,0,1-.38-.93v-4.41l-1.68-5.83L56.14,110a1.33,1.33,0,0,1-.29-.61l-.8-4.38a1.32,1.32,0,0,1,.28-1.06l1.84-2.26V94a1.27,1.27,0,0,1,.38-.93l8.2-8.2a1.33,1.33,0,0,1,1.65-.18L72.53,88l8.83,6.65,11.45,6.65,8.58,4.33a1.32,1.32,0,0,1,0,2.33l-6.93,3.83v5.59a1.29,1.29,0,0,1-.48,1l-2.62,2.17L87.91,124l-4.48,6.47a1.46,1.46,0,0,1-.16.19l-4.67,4.67A1.32,1.32,0,0,1,77.66,135.75Zm-10.43-1.5H77.59l4.63-4.63,4.48-6.47.15-.18,3.63-3.61L93,117.27v-5.61a1.32,1.32,0,0,1,.69-1.15l6.72-3.72-8.28-4.18L80.47,95.84,71.6,89.16,66.71,86l-8,8v7.69a1.32,1.32,0,0,1-.3.83l-1.82,2.24.78,4.29,2.6,3.07a1.25,1.25,0,0,1,.26.48l1.68,5.89a1.13,1.13,0,0,1,.06.36v4.34L65.68,127a1.33,1.33,0,0,1,.37.7Zm25.84-17ZM56.53,104.71Z"/><path class="cls-1" d="M243.06,117.78l.6,0h-.6Z"/><path class="cls-1" d="M259.17,117.82H247.75C251.85,117.8,256.06,117.82,259.17,117.82Z"/><path class="cls-1" d="M245.73,109.82h15.12C260.18,109.82,252,109.87,245.73,109.82Z"/><path class="cls-1" d="M292.19,101.11a16.74,16.74,0,0,1-16.72,16.71h-16.3c-3.11,0-7.32,0-11.42,0h-4.09l-.6,0a17,17,0,0,1-13.79-9.31L209.65,69.16a1.16,1.16,0,0,0-2.08,0L188.14,108.1c-.06.13-.12.25-.19.37-.16.32-.32.63-.5.93a17.47,17.47,0,0,1-1.79,2.53,17,17,0,0,1-10.53,5.74,3.55,3.55,0,0,1-.47.06c-.28,0-.57.06-.85.07l-.86,0h-3.49c-4.09,0-8.3,0-11.41,0H132.22a.85.85,0,0,1-.74-1.26l3.22-5.88a2.85,2.85,0,0,1,2-.86h19.63c.66,0,8.88.05,15.11,0H173l.52,0h.11a8.57,8.57,0,0,0,6.9-4.26l.14-.28.23-.46a8.67,8.67,0,0,0,.8-4.29,8.94,8.94,0,0,0-9-8.11H151.79v-.08a16.73,16.73,0,0,1-16.42-16.54c-.1-9.28,7.86-16.88,17.14-16.88H188a.86.86,0,0,1,.74,1.28l-3.43,5.89a2.84,2.84,0,0,1-2,.83H152.09a8.72,8.72,0,0,0-8.7,9.32,8.93,8.93,0,0,0,9,8.11h20.85v.08a16.69,16.69,0,0,1,13.86,7.84l17-34.12,2.35-4.71a2.36,2.36,0,0,1,4.23,0l2.36,4.72,23.66,47.4a8.58,8.58,0,0,0,7,4.27l2,0c6.23.05,14.45,0,15.12,0h14.62a8.72,8.72,0,1,0,0-17.43H254.31V92.3c-9-.39-16.57-7.87-16.42-17a16.74,16.74,0,0,1,16.72-16.45h35.93a.85.85,0,0,1,.73,1.28l-3.42,5.89a2.8,2.8,0,0,1-2,.83H254.61a8.73,8.73,0,0,0-8.7,9.32,8.92,8.92,0,0,0,9,8.11h20.85v.08A16.73,16.73,0,0,1,292.19,101.11Z"/><path class="cls-1" d="M169.46,117.82H158.05C161.16,117.82,165.37,117.8,169.46,117.82Z"/><path class="cls-1" d="M171.48,109.82c-6.23.05-14.45,0-15.11,0Z"/><path class="cls-1" d="M180.62,105.25l-.14.28a8.57,8.57,0,0,1-6.9,4.26A8.71,8.71,0,0,0,180.62,105.25Z"/><path class="cls-1" d="M185.66,111.93a16.59,16.59,0,0,1-10.53,5.74A17,17,0,0,0,185.66,111.93Z"/><path class="cls-1" d="M187.45,109.4a15.43,15.43,0,0,1-1.79,2.53A17.47,17.47,0,0,0,187.45,109.4Z"/><path class="cls-1" d="M173.47,109.8l-.52,0h-1.47Z"/><path class="cls-1" d="M173.81,117.8c-.42,0-.85,0-1.27,0l-3.08,0H173Z"/><path class="cls-1" d="M247.75,117.82l-3.08,0c-.34,0-.68,0-1,0Z"/><path class="cls-1" d="M2.38,160.19a10.33,10.33,0,0,0,6.82,2.47q4.67-.07,4.74-3.45,0-2.78-3.13-3.33l-3.17-.46a7.77,7.77,0,0,1-4.71-2.36,6.7,6.7,0,0,1-1.66-4.59,6.89,6.89,0,0,1,2.09-5.23,7.93,7.93,0,0,1,5.73-2,13.18,13.18,0,0,1,7.77,2.56l-2,3.08A10.83,10.83,0,0,0,8.9,145a4.43,4.43,0,0,0-2.8.87,3.26,3.26,0,0,0-1.2,2.69,2.75,2.75,0,0,0,.81,1.93,4.53,4.53,0,0,0,2.58,1.23q1,.16,2.7.39a7.37,7.37,0,0,1,5,2.5,7.16,7.16,0,0,1,1.59,4.62q-.18,7.09-8.41,7.2A13.32,13.32,0,0,1,0,163Z"/><path class="cls-1" d="M21.59,148.57H25v1.86h.07a5.7,5.7,0,0,1,4.6-2.08,6.63,6.63,0,0,1,2.95.62,8.9,8.9,0,0,1,2,1.68,6.92,6.92,0,0,1,5.55-2.3,6,6,0,0,1,4,1.54,5.94,5.94,0,0,1,1.87,4.58v11.72H42.66V155.68a3.78,3.78,0,0,0-1-2.82,3.4,3.4,0,0,0-2.53-1,3.48,3.48,0,0,0-2.56,1,3.72,3.72,0,0,0-1,2.82v10.51H32.13V155.68a3.78,3.78,0,0,0-1-2.82,3.48,3.48,0,0,0-2.56-1,3.44,3.44,0,0,0-2.54,1,3.69,3.69,0,0,0-1,2.82v10.51H21.59Z"/><path class="cls-1" d="M60.31,164.63h-.06A2.87,2.87,0,0,1,58.77,166a6.93,6.93,0,0,1-2.73.44,6.07,6.07,0,0,1-4.4-1.56A5,5,0,0,1,50,161a5.08,5.08,0,0,1,1.41-3.68,5.53,5.53,0,0,1,4.14-1.53h4.75v-1.86c0-1.56-1.14-2.31-3.5-2.27a6.07,6.07,0,0,0-2,.27,2.5,2.5,0,0,0-1.22,1.1l-2.69-2.13a6.55,6.55,0,0,1,5.76-2.56,8.9,8.9,0,0,1,5.15,1.25q1.92,1.32,2,4.55v12H60.31Zm0-5.91H56.2c-2,0-3,.75-3,2.12a1.9,1.9,0,0,0,.78,1.53,3.53,3.53,0,0,0,2.45.7,6,6,0,0,0,3-.53c.54-.37.8-1.22.8-2.55Z"/><path class="cls-1" d="M68.73,148.57h3.43v1.86h.07a5.63,5.63,0,0,1,8-.73l-2.5,3.06a3.55,3.55,0,0,0-2.26-.88,3.14,3.14,0,0,0-2.25.88,3.48,3.48,0,0,0-1.09,2.8v10.63H68.73Z"/><path class="cls-1" d="M82.47,143.2H85.9v5.37h2.49v2.71H85.9v10.27c0,.9.38,1.33,1.21,1.31h1.28v3.33H86.61a4,4,0,0,1-3-1.16,4.11,4.11,0,0,1-1.18-3.18V151.28H80.75v-2.71h1.72Z"/><path class="cls-1" d="M112.85,160.65h-9.09l-1.84,5.54H98.07l8.71-24.75h3l8.71,24.75h-3.83Zm-1-3.32-3.47-10.83h-.07l-3.47,10.83Z"/><path class="cls-1" d="M122,151.28h-1.73v-2.71H122v-2.33a4.71,4.71,0,0,1,1.34-3.7,5,5,0,0,1,3.31-1.1h2.22v3.32h-2c-1,0-1.53.46-1.49,1.47v2.34h3.45v2.71h-3.45v14.91H122Z"/><path class="cls-1" d="M131.12,148.57h3.43v1.86h.07a5.63,5.63,0,0,1,8-.73l-2.5,3.06a3.55,3.55,0,0,0-2.26-.88,3.14,3.14,0,0,0-2.25.88,3.48,3.48,0,0,0-1.09,2.8v10.63h-3.43Z"/><path class="cls-1" d="M144.76,141.44h3.42V145h-3.42Zm0,7.13h3.42v17.62h-3.42Z"/><path class="cls-1" d="M165.55,163.35a9.41,9.41,0,0,1-2.63,2.15,7.25,7.25,0,0,1-3.51.89,7.56,7.56,0,0,1-5.3-2.12c-1.58-1.42-2.38-3.71-2.43-6.88s.86-5.52,2.43-7a7.42,7.42,0,0,1,5.31-2.08,7.54,7.54,0,0,1,3.5.84,8.87,8.87,0,0,1,2.63,2.22L163,153.73a4.26,4.26,0,0,0-3.47-1.85q-4.38-.07-4.44,5.51t4.44,5.47A4.15,4.15,0,0,0,163,161Z"/><path class="cls-1" d="M177.38,164.63h-.06a2.87,2.87,0,0,1-1.48,1.32,6.93,6.93,0,0,1-2.73.44,6.07,6.07,0,0,1-4.4-1.56,5,5,0,0,1-1.63-3.82,5.08,5.08,0,0,1,1.41-3.68,5.52,5.52,0,0,1,4.14-1.53h4.75v-1.86c0-1.56-1.14-2.31-3.5-2.27a6.07,6.07,0,0,0-2,.27,2.5,2.5,0,0,0-1.22,1.1L168,150.91a6.55,6.55,0,0,1,5.76-2.56,8.85,8.85,0,0,1,5.14,1.25q1.93,1.32,2,4.55v12h-3.43Zm0-5.91h-4.11c-2,0-3,.75-3,2.12a1.9,1.9,0,0,0,.78,1.53,3.53,3.53,0,0,0,2.45.7,6,6,0,0,0,3.05-.53c.53-.37.8-1.22.8-2.55Z"/><path class="cls-1" d="M194.74,160.19a10.33,10.33,0,0,0,6.82,2.47q4.66-.07,4.74-3.45,0-2.78-3.13-3.33l-3.17-.46a7.77,7.77,0,0,1-4.71-2.36,6.7,6.7,0,0,1-1.66-4.59,6.89,6.89,0,0,1,2.09-5.23,7.93,7.93,0,0,1,5.73-2,13.18,13.18,0,0,1,7.77,2.56l-2,3.08a10.83,10.83,0,0,0-5.94-1.91,4.43,4.43,0,0,0-2.8.87,3.26,3.26,0,0,0-1.2,2.69,2.75,2.75,0,0,0,.81,1.93,4.53,4.53,0,0,0,2.58,1.23q1,.16,2.7.39a7.35,7.35,0,0,1,5,2.5,7.17,7.17,0,0,1,1.6,4.62q-.19,7.09-8.42,7.2a13.32,13.32,0,0,1-9.15-3.38Z"/><path class="cls-1" d="M214.29,143.2h3.43v5.37h2.5v2.71h-2.5v10.27c0,.9.38,1.33,1.21,1.31h1.29v3.33h-1.79a4,4,0,0,1-3-1.16,4.15,4.15,0,0,1-1.18-3.18V151.28h-1.72v-2.71h1.72Z"/><path class="cls-1" d="M223.75,148.57h3.42v10.5a3.88,3.88,0,0,0,1,2.79,3.22,3.22,0,0,0,2.44,1,3.18,3.18,0,0,0,2.42-1,3.91,3.91,0,0,0,.95-2.79v-10.5h3.43v17.62H234V164.3h-.07a5.39,5.39,0,0,1-4.42,2.09,5.63,5.63,0,0,1-3.82-1.59,5.57,5.57,0,0,1-1.89-4.51Z"/><path class="cls-1" d="M252.62,164.35a5.7,5.7,0,0,1-4.42,2,5.43,5.43,0,0,1-2.64-.66,5.72,5.72,0,0,1-1.92-1.63,4.55,4.55,0,0,1-.94-2.26,36.38,36.38,0,0,1,0-9,4.49,4.49,0,0,1,.94-2.19,5.22,5.22,0,0,1,4.56-2.29,5.43,5.43,0,0,1,2.44.55,9.87,9.87,0,0,1,2,1.52v-9h3.43v24.75h-3.43Zm-3.37-12.47a3.42,3.42,0,0,0-1.86.42,2.72,2.72,0,0,0-1,1.26,6.33,6.33,0,0,0-.41,1.74,19.88,19.88,0,0,0-.1,2.06,18,18,0,0,0,.1,2,6.43,6.43,0,0,0,.41,1.8,2.82,2.82,0,0,0,1,1.26,3.08,3.08,0,0,0,1.86.48,3.27,3.27,0,0,0,1.93-.51,2.53,2.53,0,0,0,1-1.29,6.9,6.9,0,0,0,.44-1.79c0-.65,0-1.29,0-1.91s0-1.33,0-2a6.94,6.94,0,0,0-.44-1.74,2.53,2.53,0,0,0-1-1.29A3.35,3.35,0,0,0,249.25,151.88Z"/><path class="cls-1" d="M263,158.72a4.18,4.18,0,0,0,1.19,3.22,3.86,3.86,0,0,0,2.89,1.13,5.08,5.08,0,0,0,3.74-1.72l2.48,2.19a8,8,0,0,1-6.14,2.85,8.36,8.36,0,0,1-2.63-.41,5.69,5.69,0,0,1-1.25-.59,6,6,0,0,1-1.2-.8,6.88,6.88,0,0,1-1.76-2.75,11,11,0,0,1-.74-4.41,12.6,12.6,0,0,1,.64-4.35,7.59,7.59,0,0,1,1.64-2.78,6.15,6.15,0,0,1,2.29-1.5,7.2,7.2,0,0,1,2.46-.45,7,7,0,0,1,5,2,7.36,7.36,0,0,1,2.09,5.47v2.92Zm7.22-2.92a4.55,4.55,0,0,0-1.07-3.12,3.69,3.69,0,0,0-5.07,0A4.81,4.81,0,0,0,263,155.8Z"/><path class="cls-1" d="M277.85,148.57h3.43v1.86h.06a5.44,5.44,0,0,1,4.44-2.08,5.76,5.76,0,0,1,3.88,1.54,6.06,6.06,0,0,1,1.82,4.58v11.72h-3.43V155.68a3.85,3.85,0,0,0-.95-2.82,3.17,3.17,0,0,0-2.42-1,3.2,3.2,0,0,0-2.43,1,3.82,3.82,0,0,0-1,2.82v10.51h-3.43Z"/><path class="cls-1" d="M296.73,143.2h3.42v5.37h2.5v2.71h-2.5v10.27c0,.9.39,1.33,1.22,1.31h1.28v3.33h-1.79a4,4,0,0,1-2.95-1.16,4.11,4.11,0,0,1-1.18-3.18V151.28H295v-2.71h1.72Z"/><path class="cls-1" d="M1,177.82H3.18v12.49h6.88v2.08H1Z"/><path class="cls-1" d="M13.76,188a2.44,2.44,0,0,0,.7,1.9,2.27,2.27,0,0,0,1.7.66,3,3,0,0,0,2.2-1l1.46,1.29a4.68,4.68,0,0,1-3.62,1.68,5.05,5.05,0,0,1-1.54-.24,3.57,3.57,0,0,1-.74-.35,3.3,3.3,0,0,1-.7-.47,4.09,4.09,0,0,1-1-1.62,6.54,6.54,0,0,1-.44-2.6,7.45,7.45,0,0,1,.38-2.55,4.46,4.46,0,0,1,1-1.64,3.59,3.59,0,0,1,1.34-.88,4.21,4.21,0,0,1,1.45-.27,4.1,4.1,0,0,1,2.92,1.17A4.33,4.33,0,0,1,20,186.28V188ZM18,186.28a2.74,2.74,0,0,0-.63-1.84,2.19,2.19,0,0,0-3,0,2.85,2.85,0,0,0-.63,1.84Z"/><path class="cls-1" d="M34.77,190.72A5.24,5.24,0,0,1,33.22,192a4.17,4.17,0,0,1-2.06.53A4.47,4.47,0,0,1,28,191.26a5.3,5.3,0,0,1-1.43-4A5.4,5.4,0,0,1,28,183.12a4.56,4.56,0,0,1,5.19-.73,5.16,5.16,0,0,1,1.54,1.3l-1.49,1.37a2.49,2.49,0,0,0-2-1.09q-2.58,0-2.61,3.24c0,2.18.89,3.26,2.61,3.22a2.43,2.43,0,0,0,2-1.08Z"/><path class="cls-1" d="M36.46,177.82h2v5.3h0a3.19,3.19,0,0,1,2.61-1.23,3.36,3.36,0,0,1,2.28.91,3.57,3.57,0,0,1,1.07,2.7v6.89h-2v-6.18a2.24,2.24,0,0,0-.57-1.66,1.85,1.85,0,0,0-1.42-.58,1.88,1.88,0,0,0-1.43.58,2.24,2.24,0,0,0-.57,1.66v6.18h-2Z"/><path class="cls-1" d="M49,188a2.44,2.44,0,0,0,.7,1.9,2.27,2.27,0,0,0,1.7.66,3,3,0,0,0,2.2-1L55,190.83a4.68,4.68,0,0,1-3.62,1.68,5.12,5.12,0,0,1-1.55-.24,3.75,3.75,0,0,1-.73-.35,3.64,3.64,0,0,1-.71-.47,4.19,4.19,0,0,1-1-1.62,6.54,6.54,0,0,1-.44-2.6,7.45,7.45,0,0,1,.38-2.55,4.33,4.33,0,0,1,1-1.64,3.59,3.59,0,0,1,1.34-.88,4.21,4.21,0,0,1,1.45-.27A4.06,4.06,0,0,1,54,183.06a4.3,4.3,0,0,1,1.23,3.22V188Zm4.25-1.71a2.74,2.74,0,0,0-.63-1.84,2,2,0,0,0-1.5-.59,2,2,0,0,0-1.49.59,2.85,2.85,0,0,0-.63,1.84Z"/><path class="cls-1" d="M57.6,182h2v1.1h0a3.37,3.37,0,0,1,2.71-1.23,3.87,3.87,0,0,1,1.74.37,5.27,5.27,0,0,1,1.19,1,4.08,4.08,0,0,1,3.26-1.36,3.54,3.54,0,0,1,2.36.91,3.48,3.48,0,0,1,1.1,2.7v6.89H70v-6.18a2.21,2.21,0,0,0-.58-1.66,2,2,0,0,0-1.49-.58,2.07,2.07,0,0,0-1.51.58,2.18,2.18,0,0,0-.6,1.66v6.18h-2v-6.18a2.25,2.25,0,0,0-.58-1.66,2.05,2.05,0,0,0-1.51-.58,2,2,0,0,0-1.49.58,2.15,2.15,0,0,0-.61,1.66v6.18h-2Z"/><path class="cls-1" d="M75.18,177.82h2v2.08h-2Zm0,4.2h2v10.37h-2Z"/><path class="cls-1" d="M80,182h2v1.1h0a3.19,3.19,0,0,1,2.61-1.23,3.36,3.36,0,0,1,2.28.91A3.57,3.57,0,0,1,88,185.5v6.89H86v-6.18a2.28,2.28,0,0,0-.56-1.66,2.05,2.05,0,0,0-2.86,0,2.24,2.24,0,0,0-.57,1.66v6.18H80Z"/><path class="cls-1" d="M96.21,189.22a4.12,4.12,0,0,0,3.18,1.33,2.57,2.57,0,0,0,1.43-.35,1.09,1.09,0,0,0,.55-1,.88.88,0,0,0-.33-.78,1.75,1.75,0,0,0-.9-.25L98.36,188a3.33,3.33,0,0,1-2.07-.88,2.69,2.69,0,0,1-.83-2.06,2.84,2.84,0,0,1,1.09-2.4,4.29,4.29,0,0,1,2.66-.8,7.89,7.89,0,0,1,1.25.09,5.56,5.56,0,0,1,1,.28,5.9,5.9,0,0,1,1.67,1.05l-1.25,1.5a6.88,6.88,0,0,0-1.23-.71,4,4,0,0,0-1.48-.25,2,2,0,0,0-1.33.35,1.14,1.14,0,0,0-.39.9.69.69,0,0,0,.3.61,1.75,1.75,0,0,0,1,.37l1.67.13a3.06,3.06,0,0,1,2.27,1,3.4,3.4,0,0,1,.65,2.13,2.72,2.72,0,0,1-1.19,2.33,5,5,0,0,1-3,.86,6.29,6.29,0,0,1-4.43-1.86Z"/><path class="cls-1" d="M107.26,188a2.47,2.47,0,0,0,.69,1.9,2.3,2.3,0,0,0,1.71.66,3,3,0,0,0,2.2-1l1.46,1.29a4.7,4.7,0,0,1-3.62,1.68,5.12,5.12,0,0,1-1.55-.24,3.75,3.75,0,0,1-.73-.35,3.64,3.64,0,0,1-.71-.47,4.19,4.19,0,0,1-1-1.62,6.54,6.54,0,0,1-.44-2.6,7.45,7.45,0,0,1,.38-2.55,4.33,4.33,0,0,1,1-1.64,3.44,3.44,0,0,1,1.34-.88,4.17,4.17,0,0,1,1.45-.27,4.06,4.06,0,0,1,2.91,1.17,4.3,4.3,0,0,1,1.23,3.22V188Zm4.24-1.71a2.65,2.65,0,0,0-.63-1.84,2.18,2.18,0,0,0-3,0,2.85,2.85,0,0,0-.63,1.84Zm-1.67-8.58h2.66l-2.81,3H108Z"/><path class="cls-1" d="M123.36,190.72a5.24,5.24,0,0,1-1.55,1.26,4.17,4.17,0,0,1-2.06.53,4.47,4.47,0,0,1-3.12-1.25,5.3,5.3,0,0,1-1.43-4,5.4,5.4,0,0,1,1.43-4.09,4.56,4.56,0,0,1,5.19-.73,5.16,5.16,0,0,1,1.54,1.3l-1.49,1.37a2.49,2.49,0,0,0-2-1.09q-2.58,0-2.61,3.24c0,2.18.89,3.26,2.61,3.22a2.43,2.43,0,0,0,2-1.08Z"/><path class="cls-1" d="M125.05,182h2v6.18a2.26,2.26,0,0,0,.57,1.64,2,2,0,0,0,2.86,0,2.3,2.3,0,0,0,.56-1.64V182h2v10.37h-2v-1.11h0a3.19,3.19,0,0,1-2.6,1.23,3.36,3.36,0,0,1-2.26-.94,3.3,3.3,0,0,1-1.11-2.65Z"/><path class="cls-1" d="M136,182h2v1.1h0a3.31,3.31,0,0,1,4.73-.43l-1.48,1.8A2.05,2.05,0,0,0,140,184a1.86,1.86,0,0,0-1.33.52,2,2,0,0,0-.64,1.65v6.25h-2Z"/><path class="cls-1" d="M144.07,177.82h2v2.08h-2Zm0,4.2h2v10.37h-2Z"/><path class="cls-1" d="M149.2,189.22a4.14,4.14,0,0,0,3.19,1.33,2.56,2.56,0,0,0,1.42-.35,1.1,1.1,0,0,0,.56-1,.88.88,0,0,0-.33-.78,1.82,1.82,0,0,0-.91-.25l-1.78-.16a3.28,3.28,0,0,1-2.06-.88,2.66,2.66,0,0,1-.84-2.06,2.83,2.83,0,0,1,1.1-2.4,4.24,4.24,0,0,1,2.65-.8,7.89,7.89,0,0,1,1.25.09,5.36,5.36,0,0,1,1,.28,5.9,5.9,0,0,1,1.67,1.05l-1.25,1.5a6.88,6.88,0,0,0-1.23-.71,4,4,0,0,0-1.48-.25,2,2,0,0,0-1.33.35,1.14,1.14,0,0,0-.39.9.69.69,0,0,0,.3.61,1.75,1.75,0,0,0,1,.37l1.66.13a3,3,0,0,1,2.27,1,3.34,3.34,0,0,1,.65,2.13,2.72,2.72,0,0,1-1.19,2.33,5,5,0,0,1-3,.86,6.27,6.27,0,0,1-4.42-1.86Z"/><path class="cls-1" d="M160.25,188a2.44,2.44,0,0,0,.7,1.9,2.27,2.27,0,0,0,1.7.66,3,3,0,0,0,2.2-1l1.46,1.29a4.68,4.68,0,0,1-3.62,1.68,5.12,5.12,0,0,1-1.55-.24,3.75,3.75,0,0,1-.73-.35,3.64,3.64,0,0,1-.71-.47,4.19,4.19,0,0,1-1-1.62,6.54,6.54,0,0,1-.44-2.6,7.45,7.45,0,0,1,.38-2.55,4.33,4.33,0,0,1,1-1.64,3.59,3.59,0,0,1,1.34-.88,4.21,4.21,0,0,1,1.45-.27,4.06,4.06,0,0,1,2.91,1.17,4.3,4.3,0,0,1,1.23,3.22V188Zm4.25-1.71a2.74,2.74,0,0,0-.63-1.84,2.19,2.19,0,0,0-3,0,2.85,2.85,0,0,0-.63,1.84Zm-1.67-8.58h2.65l-2.81,3H161Z"/><path class="cls-1" d="M172.44,182h2.14l2.36,7.27h0l2.35-7.27h2.15l-3.68,10.37h-1.67Z"/><path class="cls-1" d="M184.35,188a2.47,2.47,0,0,0,.69,1.9,2.31,2.31,0,0,0,1.71.66,3,3,0,0,0,2.2-1l1.46,1.29a4.7,4.7,0,0,1-3.62,1.68,5.12,5.12,0,0,1-1.55-.24,3.75,3.75,0,0,1-.73-.35,3.64,3.64,0,0,1-.71-.47,4.19,4.19,0,0,1-1-1.62,6.54,6.54,0,0,1-.44-2.6,7.45,7.45,0,0,1,.38-2.55,4.33,4.33,0,0,1,1-1.64,3.51,3.51,0,0,1,1.34-.88,4.17,4.17,0,0,1,1.45-.27,4.06,4.06,0,0,1,2.91,1.17,4.3,4.3,0,0,1,1.23,3.22V188Zm4.25-1.71a2.74,2.74,0,0,0-.63-1.84,2,2,0,0,0-1.5-.59,2,2,0,0,0-1.49.59,2.85,2.85,0,0,0-.63,1.84Z"/><path class="cls-1" d="M193.06,182h2v1.1h0a3.29,3.29,0,0,1,4.72-.43l-1.47,1.8A2.08,2.08,0,0,0,197,184a1.85,1.85,0,0,0-1.32.52,2,2,0,0,0-.64,1.65v6.25h-2Z"/><path class="cls-1" d="M201.32,189.22a4.12,4.12,0,0,0,3.18,1.33,2.59,2.59,0,0,0,1.43-.35,1.11,1.11,0,0,0,.55-1,.88.88,0,0,0-.33-.78,1.81,1.81,0,0,0-.9-.25l-1.79-.16a3.33,3.33,0,0,1-2.06-.88,2.7,2.7,0,0,1-.84-2.06,2.85,2.85,0,0,1,1.1-2.4,4.26,4.26,0,0,1,2.65-.8,7.8,7.8,0,0,1,1.25.09,5.67,5.67,0,0,1,1,.28,5.84,5.84,0,0,1,1.66,1.05l-1.25,1.5a6.88,6.88,0,0,0-1.23-.71,4,4,0,0,0-1.47-.25,1.91,1.91,0,0,0-1.33.35,1.12,1.12,0,0,0-.4.9.74.74,0,0,0,.3.61,1.81,1.81,0,0,0,1,.37l1.67.13a3.08,3.08,0,0,1,2.27,1,3.4,3.4,0,0,1,.65,2.13,2.74,2.74,0,0,1-1.19,2.33,5.05,5.05,0,0,1-3,.86,6.27,6.27,0,0,1-4.42-1.86Z"/><path class="cls-1" d="M215.75,177.82h2v11.9c0,.48.25.71.75.71h.7v2h-.9a2.8,2.8,0,0,1-1.81-.57,2.27,2.27,0,0,1-.76-1.94Z"/><path class="cls-1" d="M226.3,191.47h0a1.67,1.67,0,0,1-.87.78,4,4,0,0,1-1.6.26,3.57,3.57,0,0,1-2.59-.92,2.93,2.93,0,0,1-1-2.25,3,3,0,0,1,.83-2.17,3.26,3.26,0,0,1,2.44-.89h2.79v-1.1c0-.92-.67-1.36-2.06-1.33a3.48,3.48,0,0,0-1.19.16,1.48,1.48,0,0,0-.72.64l-1.58-1.25a3.87,3.87,0,0,1,3.39-1.51,5.28,5.28,0,0,1,3,.74,3.06,3.06,0,0,1,1.15,2.68v7.08h-2Zm0-3.48h-2.42c-1.18,0-1.76.45-1.75,1.25a1.12,1.12,0,0,0,.46.9,2,2,0,0,0,1.44.41,3.41,3.41,0,0,0,1.8-.31c.31-.22.47-.72.47-1.5Z"/><path class="cls-1" d="M236.16,182h2v1.1h0a3.31,3.31,0,0,1,4.73-.43l-1.48,1.8a2.05,2.05,0,0,0-1.32-.52,1.86,1.86,0,0,0-1.33.52,2,2,0,0,0-.64,1.65v6.25h-2Z"/><path class="cls-1" d="M245.64,188a2.44,2.44,0,0,0,.7,1.9,2.27,2.27,0,0,0,1.7.66,2.94,2.94,0,0,0,2.2-1l1.46,1.29a4.68,4.68,0,0,1-3.61,1.68,5.07,5.07,0,0,1-1.55-.24,3.83,3.83,0,0,1-.74-.35,3.57,3.57,0,0,1-.7-.47,4.2,4.2,0,0,1-1-1.62,6.56,6.56,0,0,1-.43-2.6,7.47,7.47,0,0,1,.37-2.55,4.46,4.46,0,0,1,1-1.64,3.55,3.55,0,0,1,1.35-.88,4.17,4.17,0,0,1,1.45-.27,4.08,4.08,0,0,1,2.91,1.17,4.38,4.38,0,0,1,1.23,3.22V188Zm4.25-1.71a2.74,2.74,0,0,0-.63-1.84,2.19,2.19,0,0,0-3,0,2.85,2.85,0,0,0-.63,1.84Zm-1.67-8.58h2.66l-2.81,3H246.4Z"/><path class="cls-1" d="M254.36,182h2v6.18a2.26,2.26,0,0,0,.57,1.64,1.89,1.89,0,0,0,1.44.59,1.84,1.84,0,0,0,1.42-.59,2.3,2.3,0,0,0,.56-1.64V182h2v10.37h-2v-1.11h0a3.18,3.18,0,0,1-2.6,1.23,3.33,3.33,0,0,1-2.25-.94,3.27,3.27,0,0,1-1.11-2.65Z"/><path class="cls-1" d="M265.64,189.22a4.12,4.12,0,0,0,3.18,1.33,2.59,2.59,0,0,0,1.43-.35,1.09,1.09,0,0,0,.55-1,.88.88,0,0,0-.33-.78,1.75,1.75,0,0,0-.9-.25l-1.78-.16a3.33,3.33,0,0,1-2.07-.88,2.69,2.69,0,0,1-.83-2.06,2.84,2.84,0,0,1,1.09-2.4,4.27,4.27,0,0,1,2.66-.8,7.89,7.89,0,0,1,1.25.09,5.56,5.56,0,0,1,1,.28,5.9,5.9,0,0,1,1.67,1.05l-1.25,1.5a6.63,6.63,0,0,0-1.24-.71,3.9,3.9,0,0,0-1.47-.25,1.93,1.93,0,0,0-1.33.35,1.15,1.15,0,0,0-.4.9.74.74,0,0,0,.3.61,1.81,1.81,0,0,0,1,.37l1.67.13a3.06,3.06,0,0,1,2.27,1,3.4,3.4,0,0,1,.65,2.13,2.72,2.72,0,0,1-1.19,2.33,5,5,0,0,1-3,.86,6.29,6.29,0,0,1-4.43-1.86Z"/><path class="cls-1" d="M275.46,189.22a4.12,4.12,0,0,0,3.18,1.33,2.57,2.57,0,0,0,1.43-.35,1.09,1.09,0,0,0,.55-1,.88.88,0,0,0-.33-.78,1.75,1.75,0,0,0-.9-.25l-1.78-.16a3.33,3.33,0,0,1-2.07-.88,2.69,2.69,0,0,1-.83-2.06,2.84,2.84,0,0,1,1.09-2.4,4.27,4.27,0,0,1,2.66-.8,7.89,7.89,0,0,1,1.25.09,5.56,5.56,0,0,1,1,.28,5.9,5.9,0,0,1,1.67,1.05l-1.25,1.5a6.88,6.88,0,0,0-1.23-.71,4,4,0,0,0-1.48-.25,1.93,1.93,0,0,0-1.33.35,1.15,1.15,0,0,0-.4.9.74.74,0,0,0,.3.61,1.81,1.81,0,0,0,1,.37l1.67.13a3.06,3.06,0,0,1,2.27,1,3.4,3.4,0,0,1,.65,2.13,2.72,2.72,0,0,1-1.19,2.33,5,5,0,0,1-3,.86,6.29,6.29,0,0,1-4.43-1.86Z"/><path class="cls-1" d="M285.05,177.82h2v2.08h-2Zm0,4.2h2v10.37h-2Z"/><path class="cls-1" d="M290,178.86h2V182h1.47v1.6H292v6c0,.53.23.79.72.77h.75v2h-1.05a2.36,2.36,0,0,1-1.74-.68,2.45,2.45,0,0,1-.69-1.88v-6.21h-1V182h1Z"/><path class="cls-1" d="M297.1,188a2.47,2.47,0,0,0,.69,1.9,2.3,2.3,0,0,0,1.71.66,3,3,0,0,0,2.2-1l1.46,1.29a4.7,4.7,0,0,1-3.62,1.68,5.12,5.12,0,0,1-1.55-.24,3.75,3.75,0,0,1-.73-.35,3.64,3.64,0,0,1-.71-.47,4.19,4.19,0,0,1-1-1.62,6.54,6.54,0,0,1-.44-2.6,7.45,7.45,0,0,1,.38-2.55,4.33,4.33,0,0,1,1-1.64,3.44,3.44,0,0,1,1.34-.88,4.17,4.17,0,0,1,1.45-.27,4.06,4.06,0,0,1,2.91,1.17,4.3,4.3,0,0,1,1.23,3.22V188Zm4.24-1.71a2.65,2.65,0,0,0-.63-1.84,2.18,2.18,0,0,0-3,0,2.85,2.85,0,0,0-.63,1.84Z"/><path class="cls-1" d="M109,124.29a1.31,1.31,0,0,1-.91-.36l-1.54-1.47a1.31,1.31,0,0,1-.42-.95V117.1a1.33,1.33,0,0,1,.39-.93l1.68-1.68v-5.1a1.3,1.3,0,0,1,.38-.93l1.84-1.84a1.32,1.32,0,0,1,.94-.39h2.37l2.61-4.4a1.32,1.32,0,0,1,2.39.27l1.93,6.14a1.32,1.32,0,0,1-.15,1.11l-2.24,3.47-4.53,6.36-.71,2.19a1.28,1.28,0,0,1-.48.66l-2.78,2A1.36,1.36,0,0,1,109,124.29Zm-1.37-2.86,1.38,1.3,2.61-1.88.71-2.18a1.43,1.43,0,0,1,.19-.37L117,112l2.18-3.37-1.78-5.67L115,107.08a1.31,1.31,0,0,1-1.13.65h-2.41l-1.73,1.73v5.11a1.31,1.31,0,0,1-.39.93l-1.68,1.67Zm0-.06Z"/><path class="cls-1" d="M102.69,103.4a1.12,1.12,0,0,1-.36-.05l-11.5-3.29L80.71,96l-10.9-1.92a1.27,1.27,0,0,1-.36-.12l-7.66-3.81-5.73-.77a1.3,1.3,0,0,1-1.12-1.09L52,70.84a1.31,1.31,0,0,1,.8-1.43l46.9-19.34a1.33,1.33,0,0,1,1.44.29l7,7h13a1.33,1.33,0,0,1,1.24,1.78l-4.24,11.3a1.33,1.33,0,0,1-.25.41L103,87.48,104,102a1.3,1.3,0,0,1-1.31,1.4ZM56.39,87.88l5.66.78a1.39,1.39,0,0,1,.41.12l7.66,3.81L81,94.5l.27.08L91.4,98.67l11.09,3.17-1-14.33a1.32,1.32,0,0,1,.34-1l15-16.69,4.11-11h-12.8a1.32,1.32,0,0,1-.93-.38l-7-7L53.54,70.74Z"/><path class="cls-1" d="M34.15,72H23.51a1.3,1.3,0,0,1-.93-.38l-4.49-4.49L12.52,62.2a1.31,1.31,0,0,1-.24-.28L7.79,54.77A1.3,1.3,0,0,1,8,53.14l2-2L8.68,42.77a1.29,1.29,0,0,1,.37-1.14l7.82-7.8L23,29l1.54-4.82a1.31,1.31,0,0,1,1.25-.92h2.07l1.2-4a1.32,1.32,0,0,1,2.19-.56l1,1a.6.6,0,0,0,.21.14l4,1.62,2.44-1.13,2.34-2.15a1.33,1.33,0,0,1,.89-.35h13a1.3,1.3,0,0,1,1,.49,1.33,1.33,0,0,1,.28,1.09l-.83,4.1,2.62.87,4.77,1.95a1.92,1.92,0,0,1,.31.18L67.64,30l2.94-6a1.31,1.31,0,0,1,2.11-.36l2.19,2.19,3.21,1.39,11.37,0a1.32,1.32,0,0,1,1.31,1.41l-.38,5.7,4.25,8.5L99,52.92l4.58,8.47a1.27,1.27,0,0,1,0,1.21,1.32,1.32,0,0,1-1,.72L93,64.72l-14.12,2-13.24,2L53,71a1.4,1.4,0,0,1-.5,0l-9.52-1.9-8.36,2.84A1.23,1.23,0,0,1,34.15,72ZM23.59,70.5H34.15l8.4-2.84a1.31,1.31,0,0,1,.68,0l9.52,1.91,12.63-2.37,13.28-2,14.12-2,9.36-1.36L97.61,53.5,93.29,43.44,89,34.91a1.21,1.21,0,0,1-.14-.68l.37-5.56H78a1.4,1.4,0,0,1-.53-.11l-3.27-1.43a1.23,1.23,0,0,1-.4-.27l-2-2-2.93,6a1.32,1.32,0,0,1-2,.46l-4.6-3.64L57.65,25.8l-2.75-.92a1.31,1.31,0,0,1-.88-1.5l.81-4.05H42.14l-2.33,2.14a1.41,1.41,0,0,1-.34.22L37,22.85a1.3,1.3,0,0,1-1,0l-4.08-1.65a2.37,2.37,0,0,1-.71-.47L30.37,20l-1.15,3.82a1.3,1.3,0,0,1-1.26.94H25.89l-1.52,4.75a1.32,1.32,0,0,1-.44.63L17.79,35l-7.62,7.62L11.48,51a1.31,1.31,0,0,1-.36,1.13l-2,2,4.42,7L19.09,66ZM10.11,42.69Zm80.26-8.45Zm-48.18-15h0Z"/><path class="cls-1" d="M124.44,37.05,111.09,34.2c-4-16.82-23.17-23.58-30.67-22.52L72.61,0l33.78,4.34Z"/><path class="cls-1" d="M109.34,34.24l-1.88,2.65L104.56,41a31,31,0,0,0-2.45-4.13A41.88,41.88,0,0,0,84.53,22.05a38.93,38.93,0,0,0-9.72-2.8l5.33-5.33,1-1S102.17,14.69,109.34,34.24Z"/><path class="cls-1" d="M124.35,38.28l-1.58,11.35a1.68,1.68,0,0,0,1.67,1.92h0a1.68,1.68,0,0,0,1.66-1.94Z"/></g></g></svg>